{
  "accessors": [
    {
      "name": "Text-Mesh_0_positions",
      "componentType": 5126,
      "count": 856,
      "min": [
        -0.5416970252990723,
        0.6680769920349121,
        -1.0413459539413452
      ],
      "max": [
        0.5100889801979065,
        1.1319060325622559,
        -0.9843419790267944
      ],
      "type": "VEC3",
      "bufferView": 0,
      "byteOffset": 0
    },
    {
      "name": "Text-Mesh_0_indices",
      "componentType": 5123,
      "count": 2568,
      "min": [
        0
      ],
      "max": [
        855
      ],
      "type": "SCALAR",
      "bufferView": 1,
      "byteOffset": 0
    },
    {
      "name": "e_Plane-Mesh_0_positions",
      "componentType": 5126,
      "count": 4,
      "min": [
        -0.6512060165405273,
        0.45061901211738586,
        -1.033805012702942
      ],
      "max": [
        0.6512060165405273,
        1.2550239562988281,
        -1.033805012702942
      ],
      "type": "VEC3",
      "bufferView": 0,
      "byteOffset": 10272
    },
    {
      "name": "e_Plane-Mesh_0_indices",
      "componentType": 5123,
      "count": 6,
      "min": [
        0
      ],
      "max": [
        3
      ],
      "type": "SCALAR",
      "bufferView": 1,
      "byteOffset": 5136
    },
    {
      "name": "k_Cube.001-Mesh_0_positions",
      "componentType": 5126,
      "count": 36,
      "min": [
        -1.0499999523162842,
        0.5151299834251404,
        -1.0540449619293213
      ],
      "max": [
        1.0499999523162842,
        1.9526679515838623,
        1.0540449619293213
      ],
      "type": "VEC3",
      "bufferView": 0,
      "byteOffset": 10320
    },
    {
      "name": "k_Cube.001-Mesh_0_indices",
      "componentType": 5123,
      "count": 108,
      "min": [
        0
      ],
      "max": [
        35
      ],
      "type": "SCALAR",
      "bufferView": 1,
      "byteOffset": 5148
    },
    {
      "name": "Cube-Mesh_0_positions",
      "componentType": 5126,
      "count": 8,
      "min": [
        -1,
        -0.07608799636363983,
        -1
      ],
      "max": [
        1,
        1.9239120483398438,
        1.0000009536743164
      ],
      "type": "VEC3",
      "bufferView": 0,
      "byteOffset": 10752
    },
    {
      "name": "Cube-Mesh_0_indices",
      "componentType": 5123,
      "count": 36,
      "min": [
        0
      ],
      "max": [
        7
      ],
      "type": "SCALAR",
      "bufferView": 1,
      "byteOffset": 5364
    }
  ],
  "asset": {
    "generator": "obj2gltf",
    "version": "2.0"
  },
  "buffers": [
    {
      "name": "box",
      "byteLength": 16284,
      "uri": "data:application/octet-stream;base64,"
    }
  ],
  "bufferViews": [
    {
      "name": "bufferView_0",
      "buffer": 0,
      "byteLength": 10848,
      "byteOffset": 0,
      "byteStride": 12,
      "target": 34962
    },
    {
      "name": "bufferView_1",
      "buffer": 0,
      "byteLength": 5436,
      "byteOffset": 10848,
      "target": 34963
    }
  ],
  "materials": [
    {
      "name": "Material.006",
      "pbrMetallicRoughness": {
        "baseColorFactor": [
          0,
          0,
          0,
          1
        ],
        "metallicFactor": 0,
        "roughnessFactor": 0.903921569
      },
      "emissiveFactor": [
        0,
        0,
        0
      ],
      "alphaMode": "OPAQUE",
      "doubleSided": false
    },
    {
      "name": "Material.005",
      "pbrMetallicRoughness": {
        "baseColorFactor": [
          1,
          1,
          1,
          1
        ],
        "metallicFactor": 0,
        "roughnessFactor": 0.903921569
      },
      "emissiveFactor": [
        0,
        0,
        0
      ],
      "alphaMode": "OPAQUE",
      "doubleSided": false
    },
    {
      "name": "Material.002",
      "pbrMetallicRoughness": {
        "baseColorFactor": [
          0.8,
          0.8,
          0.8,
          1
        ],
        "metallicFactor": 0,
        "roughnessFactor": 0.903921569
      },
      "emissiveFactor": [
        0,
        0,
        0
      ],
      "alphaMode": "OPAQUE",
      "doubleSided": false
    },
    {
      "name": "Material",
      "pbrMetallicRoughness": {
        "baseColorFactor": [
          1,
          1,
          1,
          1
        ],
        "metallicFactor": 0,
        "roughnessFactor": 0.903921569
      },
      "emissiveFactor": [
        0,
        0,
        0
      ],
      "alphaMode": "OPAQUE",
      "doubleSided": false
    }
  ],
  "meshes": [
    {
      "name": "Text-Mesh",
      "primitives": [
        {
          "attributes": {
            "POSITION": 0
          },
          "indices": 1,
          "material": 0,
          "mode": 4
        }
      ]
    },
    {
      "name": "e_Plane-Mesh",
      "primitives": [
        {
          "attributes": {
            "POSITION": 2
          },
          "indices": 3,
          "material": 1,
          "mode": 4
        }
      ]
    },
    {
      "name": "k_Cube.001-Mesh",
      "primitives": [
        {
          "attributes": {
            "POSITION": 4
          },
          "indices": 5,
          "material": 2,
          "mode": 4
        }
      ]
    },
    {
      "name": "Cube-Mesh",
      "primitives": [
        {
          "attributes": {
            "POSITION": 6
          },
          "indices": 7,
          "material": 3,
          "mode": 4
        }
      ]
    }
  ],
  "nodes": [
    {
      "name": "Text",
      "mesh": 0
    },
    {
      "name": "e_Plane",
      "mesh": 1
    },
    {
      "name": "k_Cube.001",
      "mesh": 2
    },
    {
      "name": "Cube",
      "mesh": 3
    }
  ],
  "scene": 0,
  "scenes": [
    {
      "nodes": [
        0,
        1,
        2,
        3
      ]
    }
  ]
}
